<svg xmlns="http://www.w3.org/2000/svg" width="2000" height="1999" viewBox="0 0 2000 1999" version="1.1"><path d="M 460 886.306 C 453.025 887.654, 449.028 889.782, 446.649 893.413 C 444.755 896.304, 379.911 1093.248, 379.263 1098.078 C 378.559 1103.324, 380.972 1107.119, 387.171 1110.517 C 391.442 1112.858, 393.756 1113.444, 398.825 1113.469 C 409.913 1113.523, 407.075 1120.164, 442.406 1011.500 C 459.395 959.250, 473.566 916.192, 473.897 915.814 C 474.229 915.437, 488.191 957.062, 504.925 1008.314 C 521.659 1059.567, 536.217 1103.404, 537.276 1105.731 C 539.466 1110.541, 544.267 1114, 548.753 1114 C 553.815 1114, 562.086 1110.784, 565.637 1107.436 C 568.433 1104.798, 569 1103.545, 569 1099.997 C 569 1096.145, 557.561 1060.397, 510.331 916.646 C 501.040 888.368, 498.949 886.339, 478.264 885.517 C 470.967 885.228, 464.032 885.527, 460 886.306 M 1274.834 940.525 C 1269.222 942.313, 1265 946.886, 1265 951.179 C 1265 952.842, 1273.589 988.245, 1284.087 1029.852 C 1298.655 1087.588, 1303.672 1106.037, 1305.278 1107.768 C 1307.679 1110.356, 1315.625 1113, 1321 1113 C 1326.452 1113, 1334.328 1110.344, 1336.856 1107.653 C 1338.600 1105.797, 1341.370 1096.221, 1349.372 1064.385 L 1359.648 1023.500 1363.574 1023.206 L 1367.500 1022.911 1377.500 1063.140 C 1383.564 1087.536, 1388.296 1104.575, 1389.523 1106.434 C 1391.837 1109.941, 1399.085 1112.886, 1405.568 1112.956 C 1411.385 1113.019, 1419.235 1110.443, 1421.912 1107.593 C 1423.778 1105.607, 1427.734 1091.072, 1443.075 1029.825 C 1453.452 988.396, 1461.955 953.284, 1461.971 951.797 C 1462.047 944.747, 1455.089 939.639, 1445.289 939.548 C 1440.704 939.506, 1439.644 939.898, 1436.889 942.652 C 1433.607 945.931, 1433.720 945.516, 1410.516 1039.750 C 1410.061 1041.599, 1409.274 1042, 1406.105 1042 L 1402.248 1042 1399.604 1031.750 C 1398.149 1026.112, 1392.946 1004.989, 1388.041 984.808 C 1383.136 964.627, 1378.383 946.988, 1377.480 945.610 C 1374.993 941.814, 1368.188 939.615, 1360.958 940.270 C 1354.125 940.890, 1350.367 942.905, 1348.914 946.727 C 1348.365 948.170, 1342.704 970.197, 1336.333 995.675 L 1324.750 1042 1321.076 1042 L 1317.402 1042 1305.557 994.328 C 1294.593 950.202, 1293.481 946.404, 1290.605 943.266 C 1286.862 939.182, 1281.810 938.304, 1274.834 940.525 M 623.447 942.378 C 616.829 944.492, 607.182 950.058, 602.854 954.258 C 596.929 960.008, 593.091 968.962, 591.966 979.660 C 591.454 984.522, 591.036 1005.375, 591.036 1026 C 591.036 1046.625, 591.454 1067.478, 591.966 1072.340 C 593.709 1088.909, 600.914 1099.387, 615.535 1106.616 L 623.389 1110.500 656.346 1110.801 C 693.834 1111.144, 697.089 1110.668, 708.542 1103.166 C 723.679 1093.250, 728.653 1081.626, 727.847 1058.053 C 727.444 1046.296, 726.652 1044.423, 720.802 1041.398 C 717.367 1039.621, 707.911 1039.592, 703.718 1041.345 C 698.168 1043.665, 697.618 1045.098, 696.926 1059.031 C 696.358 1070.478, 696.008 1072.311, 693.607 1076.408 C 689.130 1084.047, 687.665 1084.450, 663 1084.838 C 638.682 1085.221, 632.692 1084.411, 628.765 1080.212 C 622.874 1073.914, 623 1075.098, 623 1025.865 C 623 982.159, 623.070 980.487, 625.071 976.353 C 626.287 973.842, 628.661 971.131, 630.821 969.788 C 634.398 967.563, 635.191 967.500, 659.500 967.500 C 682.903 967.500, 684.724 967.631, 688 969.551 C 694.176 973.170, 696.238 978.500, 696.913 992.581 C 697.600 1006.939, 698.754 1009.022, 707.131 1011.031 C 715.731 1013.094, 724.163 1010.248, 726.579 1004.466 C 728.306 1000.332, 728.494 983.046, 726.906 974.434 C 724.311 960.366, 715.972 950.551, 701.748 944.822 L 693.500 941.500 660.500 941.291 C 635.755 941.135, 626.486 941.407, 623.447 942.378 M 800 941.717 C 798.625 941.961, 793.450 944.070, 788.500 946.403 C 774.081 953.198, 766.701 962.279, 764.093 976.434 C 762.662 984.201, 762.631 1067.132, 764.056 1075.914 C 766.183 1089.025, 773.586 1098.805, 786.578 1105.665 C 796.213 1110.753, 800.282 1111.191, 834.579 1110.828 L 865.658 1110.500 874.079 1106.319 C 885.760 1100.519, 890.182 1096.434, 894.722 1087.248 L 898.500 1079.604 898.500 1026.552 L 898.500 973.500 896.196 967.798 C 891.758 956.813, 881.135 948.035, 866.282 943.076 C 860.517 941.152, 857.960 941.010, 831.282 941.136 C 815.452 941.211, 801.375 941.472, 800 941.717 M 969.638 942.108 C 963.654 943.514, 950.827 950.593, 946.189 955.049 C 941.300 959.747, 938.571 964.710, 936.495 972.680 C 935.245 977.481, 935.002 988.649, 935.015 1040.960 C 935.026 1088.606, 935.324 1104.072, 936.265 1105.904 C 938.331 1109.924, 942.495 1112.294, 948.346 1112.779 C 954.875 1113.320, 959.865 1111.837, 963.103 1108.391 L 965.500 1105.841 966 1043.642 L 966.500 981.443 969.032 976.471 C 973.357 967.979, 975.171 967.500, 1003 967.500 C 1030.672 967.500, 1032.370 967.953, 1036.890 976.541 L 1039.500 981.500 1040 1043.045 C 1040.467 1100.486, 1040.622 1104.777, 1042.328 1107.379 C 1047.446 1115.187, 1065.447 1114.837, 1069.578 1106.849 C 1070.863 1104.365, 1071.029 1094.899, 1070.784 1038.234 L 1070.500 972.500 1067.345 965.841 C 1063.454 957.627, 1058.185 952.396, 1048.878 947.505 C 1037.114 941.323, 1034.866 941.013, 1002.500 941.112 C 986.550 941.161, 971.762 941.609, 969.638 942.108 M 1138.063 943.027 C 1125.065 947.702, 1114.959 956.515, 1110.804 966.798 C 1108.523 972.443, 1108.497 972.997, 1108.188 1022 C 1107.970 1056.505, 1108.225 1073.305, 1109.029 1077.460 C 1111.944 1092.515, 1122.037 1103.680, 1137.555 1109.019 C 1142.823 1110.831, 1146.020 1111, 1175.111 1111 C 1205.901 1111, 1207.112 1110.926, 1213.324 1108.671 C 1235.329 1100.684, 1244.932 1087.125, 1243.844 1065.578 C 1243.478 1058.325, 1243.234 1057.599, 1240.289 1054.967 C 1234.559 1049.847, 1222.469 1049.822, 1216.766 1054.917 C 1214.032 1057.361, 1213.668 1058.406, 1213.033 1065.630 C 1212.222 1074.844, 1210.177 1079.093, 1205 1082.319 C 1201.646 1084.409, 1200.455 1084.500, 1176.500 1084.500 C 1148.151 1084.500, 1147.204 1084.287, 1142.246 1076.797 L 1139.500 1072.649 1139.211 1028.327 C 1139.011 997.688, 1139.270 982.711, 1140.050 979.813 C 1141.466 974.556, 1146.393 969.539, 1151.547 968.109 C 1153.825 967.476, 1164.187 967.011, 1176 967.011 C 1198.862 967.011, 1202.900 967.700, 1207.600 972.400 C 1212.033 976.833, 1212.988 981.321, 1212.994 997.750 L 1213 1012 1187.750 1012.004 C 1164.477 1012.007, 1162.250 1012.160, 1159.301 1013.958 C 1151.947 1018.442, 1152.947 1034.664, 1160.778 1037.908 C 1162.861 1038.771, 1173.247 1039.016, 1198.575 1038.799 C 1238.308 1038.459, 1238.547 1038.414, 1242.057 1030.684 C 1243.759 1026.933, 1243.957 1023.911, 1243.966 1001.500 C 1243.977 975.145, 1243.420 970.636, 1239.111 962.209 C 1235.914 955.955, 1229.695 950.220, 1222.420 946.816 C 1210.671 941.318, 1208.211 941.022, 1174.500 941.048 C 1146.293 941.070, 1143.010 941.248, 1138.063 943.027 M 1516.972 942.877 C 1502.394 947.543, 1491.197 956.797, 1486.873 967.753 C 1483.759 975.643, 1482.927 1000.743, 1485.483 1009.689 C 1488.537 1020.380, 1494.197 1026.824, 1505.500 1032.480 C 1517.325 1038.397, 1521.405 1038.997, 1549.960 1039.022 C 1578.036 1039.046, 1581.189 1039.611, 1585.770 1045.435 C 1590.619 1051.599, 1591.168 1068.357, 1586.780 1076.280 C 1582.396 1084.198, 1581.098 1084.500, 1551.500 1084.500 C 1527.282 1084.500, 1525.271 1084.363, 1522.153 1082.500 C 1517.545 1079.747, 1514.393 1073.067, 1513.746 1064.681 C 1513.140 1056.830, 1510.956 1053.638, 1505.074 1052.004 C 1495.877 1049.449, 1486.220 1051.908, 1483.577 1057.479 C 1480.736 1063.467, 1482.228 1078.379, 1486.593 1087.604 C 1491.152 1097.241, 1504.938 1107.383, 1517 1109.973 C 1520.789 1110.787, 1532.635 1111.053, 1555.079 1110.827 L 1587.658 1110.500 1596.243 1106.244 C 1610.258 1099.296, 1617.246 1090.745, 1620.090 1077.060 C 1620.758 1073.846, 1621.036 1066.277, 1620.769 1058.560 C 1620.405 1048.032, 1619.868 1044.337, 1617.996 1039.500 C 1613.589 1028.108, 1599.914 1017.557, 1584.279 1013.484 C 1579.973 1012.363, 1572.451 1012, 1553.502 1012 C 1529.467 1012, 1528.241 1011.906, 1524.020 1009.750 C 1517.699 1006.521, 1515.582 1001.903, 1515.193 990.500 C 1514.926 982.687, 1515.190 980.914, 1517.193 977.059 C 1521.772 968.243, 1525.651 967.119, 1551.500 967.119 C 1560.850 967.119, 1570.665 967.475, 1573.312 967.910 C 1582.397 969.404, 1586.693 974.439, 1588.430 985.628 C 1590.031 995.943, 1590.397 996.604, 1595.595 998.589 C 1604.306 1001.916, 1615.389 999.201, 1618.803 992.904 C 1621.622 987.706, 1618.547 970.093, 1613.382 961.843 C 1608.253 953.651, 1597.263 946.180, 1585.068 942.596 C 1576.730 940.146, 1524.837 940.359, 1516.972 942.877 M 808.867 967.963 C 802.536 969.108, 799.508 971.333, 796.799 976.833 C 794.504 981.493, 794.500 981.569, 794.500 1026.500 L 794.500 1071.500 797.289 1076.244 C 801.909 1084.104, 803.183 1084.452, 828.642 1084.818 C 852.536 1085.161, 856.973 1084.577, 861.883 1080.445 C 867.984 1075.312, 868.100 1074.211, 867.785 1024.426 L 867.500 979.351 864.684 975.097 C 860.184 968.300, 857.695 967.674, 834 967.380 C 822.725 967.240, 811.415 967.502, 808.867 967.963 M 463.900 1023.937 C 451.396 1030.733, 448.211 1046.532, 457.159 1057.379 C 465.674 1067.703, 481.270 1067.512, 490.291 1056.973 C 494.419 1052.150, 495.446 1048.394, 494.792 1040.506 C 494.270 1034.207, 490.994 1028.828, 485.356 1025.011 C 480.319 1021.601, 469.220 1021.046, 463.900 1023.937" stroke="none" fill="#fafafb" fill-rule="evenodd"/><path d="M 953.500 1.001 C 810.982 8.510, 680.994 42.132, 557 103.560 C 428.920 167.012, 316.582 256.663, 225.016 368.500 C 105.531 514.436, 29.814 693.043, 7.541 881.500 C 2.173 926.920, 1.528 939.585, 1.528 999.500 C 1.528 1059.415, 2.173 1072.080, 7.541 1117.500 C 28.342 1293.498, 94.810 1458.929, 201.707 1600.755 C 243.900 1656.734, 297.357 1713.609, 350.496 1759.058 C 497.820 1885.058, 679.674 1966.063, 870 1990.464 C 918.361 1996.665, 947.427 1998.450, 1000 1998.450 C 1044.180 1998.450, 1062.368 1997.625, 1100 1993.913 C 1302.113 1973.975, 1494.362 1891.807, 1649.504 1759.052 C 1712.885 1704.817, 1773.137 1638.254, 1820.701 1569.922 C 1915.012 1434.433, 1974.054 1278.125, 1992.917 1114 C 1997.835 1071.210, 1998.463 1058.227, 1998.463 999.500 C 1998.463 940.773, 1997.835 927.790, 1992.917 885 C 1976.746 744.299, 1931.256 609.724, 1858.718 488 C 1827.025 434.815, 1788.907 382.839, 1746.146 334.500 C 1729.361 315.525, 1679.128 265.676, 1659.814 248.827 C 1536.849 141.556, 1394.509 67.115, 1239.500 29.010 C 1182.556 15.012, 1125.375 6.203, 1064 1.974 C 1043.423 0.556, 973.616 -0.059, 953.500 1.001 M 971 22.116 C 798.304 26.561, 630.088 77.490, 481 170.469 C 445.406 192.667, 402.257 224.136, 370 251.421 C 328.283 286.710, 284.205 331.004, 249.437 372.578 C 120.337 526.947, 42.337 716.429, 25.531 916.500 C 5.375 1156.443, 72.925 1392.914, 216.349 1584.500 C 246.530 1624.817, 271.932 1654.041, 308.949 1691.036 C 345.088 1727.154, 374.292 1752.565, 413.500 1782.007 C 461.698 1818.200, 509.525 1847.708, 564 1874.860 C 685.043 1935.192, 807.931 1967.693, 946.500 1976.023 C 968.444 1977.342, 1031.484 1977.338, 1054 1976.016 C 1233.485 1965.477, 1400.186 1909.410, 1547 1810.204 C 1620.563 1760.496, 1689.848 1698.249, 1747.580 1630 C 1918.459 1427.992, 1999.465 1165.828, 1972.958 900.596 C 1952.514 696.041, 1868.956 505.947, 1730.715 349.500 C 1713.796 330.352, 1671.613 287.924, 1653.500 271.837 C 1543.154 173.827, 1421.623 105.416, 1282.500 62.995 C 1203.690 38.965, 1113.356 24.173, 1035 22.469 C 1022.075 22.188, 1008.575 21.834, 1005 21.683 C 1001.425 21.532, 986.125 21.727, 971 22.116 M 953 41.101 C 919.019 42.753, 880.626 46.826, 845.500 52.506 C 616.399 89.551, 408.156 209.311, 259.520 389.500 C 140.039 534.345, 65.914 710.413, 46.070 896.500 C 41.566 938.733, 40.025 979.358, 41.137 1026.500 C 47.867 1311.790, 184.802 1581.331, 412.942 1758.357 C 497.477 1823.952, 593.335 1875.249, 695.333 1909.472 C 835.481 1956.497, 987.733 1970.309, 1135.500 1949.405 C 1265.480 1931.016, 1389.826 1886.158, 1502 1817.190 C 1614.865 1747.796, 1712.680 1655.243, 1788.689 1545.922 C 1845.327 1464.463, 1890.042 1371.943, 1918.543 1277.244 C 1943.212 1195.274, 1956.865 1110.508, 1958.847 1027 C 1960.293 966.093, 1957.541 917.752, 1949.398 861.028 C 1916.048 628.703, 1796.584 414.943, 1615.422 263.437 C 1494.125 161.995, 1349.337 91.820, 1195.977 60.142 C 1116.686 43.763, 1033.056 37.210, 953 41.101 M 460 886.306 C 453.025 887.654, 449.028 889.782, 446.649 893.413 C 444.755 896.304, 379.911 1093.248, 379.263 1098.078 C 378.559 1103.324, 380.972 1107.119, 387.171 1110.517 C 391.442 1112.858, 393.756 1113.444, 398.825 1113.469 C 409.913 1113.523, 407.075 1120.164, 442.406 1011.500 C 459.395 959.250, 473.566 916.192, 473.897 915.814 C 474.229 915.437, 488.191 957.062, 504.925 1008.314 C 521.659 1059.567, 536.217 1103.404, 537.276 1105.731 C 539.466 1110.541, 544.267 1114, 548.753 1114 C 553.815 1114, 562.086 1110.784, 565.637 1107.436 C 568.433 1104.798, 569 1103.545, 569 1099.997 C 569 1096.145, 557.561 1060.397, 510.331 916.646 C 501.040 888.368, 498.949 886.339, 478.264 885.517 C 470.967 885.228, 464.032 885.527, 460 886.306 M 1274.834 940.525 C 1269.222 942.313, 1265 946.886, 1265 951.179 C 1265 952.842, 1273.589 988.245, 1284.087 1029.852 C 1298.655 1087.588, 1303.672 1106.037, 1305.278 1107.768 C 1307.679 1110.356, 1315.625 1113, 1321 1113 C 1326.452 1113, 1334.328 1110.344, 1336.856 1107.653 C 1338.600 1105.797, 1341.370 1096.221, 1349.372 1064.385 L 1359.648 1023.500 1363.574 1023.206 L 1367.500 1022.911 1377.500 1063.140 C 1383.564 1087.536, 1388.296 1104.575, 1389.523 1106.434 C 1391.837 1109.941, 1399.085 1112.886, 1405.568 1112.956 C 1411.385 1113.019, 1419.235 1110.443, 1421.912 1107.593 C 1423.778 1105.607, 1427.734 1091.072, 1443.075 1029.825 C 1453.452 988.396, 1461.955 953.284, 1461.971 951.797 C 1462.047 944.747, 1455.089 939.639, 1445.289 939.548 C 1440.704 939.506, 1439.644 939.898, 1436.889 942.652 C 1433.607 945.931, 1433.720 945.516, 1410.516 1039.750 C 1410.061 1041.599, 1409.274 1042, 1406.105 1042 L 1402.248 1042 1399.604 1031.750 C 1398.149 1026.112, 1392.946 1004.989, 1388.041 984.808 C 1383.136 964.627, 1378.383 946.988, 1377.480 945.610 C 1374.993 941.814, 1368.188 939.615, 1360.958 940.270 C 1354.125 940.890, 1350.367 942.905, 1348.914 946.727 C 1348.365 948.170, 1342.704 970.197, 1336.333 995.675 L 1324.750 1042 1321.076 1042 L 1317.402 1042 1305.557 994.328 C 1294.593 950.202, 1293.481 946.404, 1290.605 943.266 C 1286.862 939.182, 1281.810 938.304, 1274.834 940.525 M 623.447 942.378 C 616.829 944.492, 607.182 950.058, 602.854 954.258 C 596.929 960.008, 593.091 968.962, 591.966 979.660 C 591.454 984.522, 591.036 1005.375, 591.036 1026 C 591.036 1046.625, 591.454 1067.478, 591.966 1072.340 C 593.709 1088.909, 600.914 1099.387, 615.535 1106.616 L 623.389 1110.500 656.346 1110.801 C 693.834 1111.144, 697.089 1110.668, 708.542 1103.166 C 723.679 1093.250, 728.653 1081.626, 727.847 1058.053 C 727.444 1046.296, 726.652 1044.423, 720.802 1041.398 C 717.367 1039.621, 707.911 1039.592, 703.718 1041.345 C 698.168 1043.665, 697.618 1045.098, 696.926 1059.031 C 696.358 1070.478, 696.008 1072.311, 693.607 1076.408 C 689.130 1084.047, 687.665 1084.450, 663 1084.838 C 638.682 1085.221, 632.692 1084.411, 628.765 1080.212 C 622.874 1073.914, 623 1075.098, 623 1025.865 C 623 982.159, 623.070 980.487, 625.071 976.353 C 626.287 973.842, 628.661 971.131, 630.821 969.788 C 634.398 967.563, 635.191 967.500, 659.500 967.500 C 682.903 967.500, 684.724 967.631, 688 969.551 C 694.176 973.170, 696.238 978.500, 696.913 992.581 C 697.600 1006.939, 698.754 1009.022, 707.131 1011.031 C 715.731 1013.094, 724.163 1010.248, 726.579 1004.466 C 728.306 1000.332, 728.494 983.046, 726.906 974.434 C 724.311 960.366, 715.972 950.551, 701.748 944.822 L 693.500 941.500 660.500 941.291 C 635.755 941.135, 626.486 941.407, 623.447 942.378 M 800 941.717 C 798.625 941.961, 793.450 944.070, 788.500 946.403 C 774.081 953.198, 766.701 962.279, 764.093 976.434 C 762.662 984.201, 762.631 1067.132, 764.056 1075.914 C 766.183 1089.025, 773.586 1098.805, 786.578 1105.665 C 796.213 1110.753, 800.282 1111.191, 834.579 1110.828 L 865.658 1110.500 874.079 1106.319 C 885.760 1100.519, 890.182 1096.434, 894.722 1087.248 L 898.500 1079.604 898.500 1026.552 L 898.500 973.500 896.196 967.798 C 891.758 956.813, 881.135 948.035, 866.282 943.076 C 860.517 941.152, 857.960 941.010, 831.282 941.136 C 815.452 941.211, 801.375 941.472, 800 941.717 M 969.638 942.108 C 963.654 943.514, 950.827 950.593, 946.189 955.049 C 941.300 959.747, 938.571 964.710, 936.495 972.680 C 935.245 977.481, 935.002 988.649, 935.015 1040.960 C 935.026 1088.606, 935.324 1104.072, 936.265 1105.904 C 938.331 1109.924, 942.495 1112.294, 948.346 1112.779 C 954.875 1113.320, 959.865 1111.837, 963.103 1108.391 L 965.500 1105.841 966 1043.642 L 966.500 981.443 969.032 976.471 C 973.357 967.979, 975.171 967.500, 1003 967.500 C 1030.672 967.500, 1032.370 967.953, 1036.890 976.541 L 1039.500 981.500 1040 1043.045 C 1040.467 1100.486, 1040.622 1104.777, 1042.328 1107.379 C 1047.446 1115.187, 1065.447 1114.837, 1069.578 1106.849 C 1070.863 1104.365, 1071.029 1094.899, 1070.784 1038.234 L 1070.500 972.500 1067.345 965.841 C 1063.454 957.627, 1058.185 952.396, 1048.878 947.505 C 1037.114 941.323, 1034.866 941.013, 1002.500 941.112 C 986.550 941.161, 971.762 941.609, 969.638 942.108 M 1138.063 943.027 C 1125.065 947.702, 1114.959 956.515, 1110.804 966.798 C 1108.523 972.443, 1108.497 972.997, 1108.188 1022 C 1107.970 1056.505, 1108.225 1073.305, 1109.029 1077.460 C 1111.944 1092.515, 1122.037 1103.680, 1137.555 1109.019 C 1142.823 1110.831, 1146.020 1111, 1175.111 1111 C 1205.901 1111, 1207.112 1110.926, 1213.324 1108.671 C 1235.329 1100.684, 1244.932 1087.125, 1243.844 1065.578 C 1243.478 1058.325, 1243.234 1057.599, 1240.289 1054.967 C 1234.559 1049.847, 1222.469 1049.822, 1216.766 1054.917 C 1214.032 1057.361, 1213.668 1058.406, 1213.033 1065.630 C 1212.222 1074.844, 1210.177 1079.093, 1205 1082.319 C 1201.646 1084.409, 1200.455 1084.500, 1176.500 1084.500 C 1148.151 1084.500, 1147.204 1084.287, 1142.246 1076.797 L 1139.500 1072.649 1139.211 1028.327 C 1139.011 997.688, 1139.270 982.711, 1140.050 979.813 C 1141.466 974.556, 1146.393 969.539, 1151.547 968.109 C 1153.825 967.476, 1164.187 967.011, 1176 967.011 C 1198.862 967.011, 1202.900 967.700, 1207.600 972.400 C 1212.033 976.833, 1212.988 981.321, 1212.994 997.750 L 1213 1012 1187.750 1012.004 C 1164.477 1012.007, 1162.250 1012.160, 1159.301 1013.958 C 1151.947 1018.442, 1152.947 1034.664, 1160.778 1037.908 C 1162.861 1038.771, 1173.247 1039.016, 1198.575 1038.799 C 1238.308 1038.459, 1238.547 1038.414, 1242.057 1030.684 C 1243.759 1026.933, 1243.957 1023.911, 1243.966 1001.500 C 1243.977 975.145, 1243.420 970.636, 1239.111 962.209 C 1235.914 955.955, 1229.695 950.220, 1222.420 946.816 C 1210.671 941.318, 1208.211 941.022, 1174.500 941.048 C 1146.293 941.070, 1143.010 941.248, 1138.063 943.027 M 1516.972 942.877 C 1502.394 947.543, 1491.197 956.797, 1486.873 967.753 C 1483.759 975.643, 1482.927 1000.743, 1485.483 1009.689 C 1488.537 1020.380, 1494.197 1026.824, 1505.500 1032.480 C 1517.325 1038.397, 1521.405 1038.997, 1549.960 1039.022 C 1578.036 1039.046, 1581.189 1039.611, 1585.770 1045.435 C 1590.619 1051.599, 1591.168 1068.357, 1586.780 1076.280 C 1582.396 1084.198, 1581.098 1084.500, 1551.500 1084.500 C 1527.282 1084.500, 1525.271 1084.363, 1522.153 1082.500 C 1517.545 1079.747, 1514.393 1073.067, 1513.746 1064.681 C 1513.140 1056.830, 1510.956 1053.638, 1505.074 1052.004 C 1495.877 1049.449, 1486.220 1051.908, 1483.577 1057.479 C 1480.736 1063.467, 1482.228 1078.379, 1486.593 1087.604 C 1491.152 1097.241, 1504.938 1107.383, 1517 1109.973 C 1520.789 1110.787, 1532.635 1111.053, 1555.079 1110.827 L 1587.658 1110.500 1596.243 1106.244 C 1610.258 1099.296, 1617.246 1090.745, 1620.090 1077.060 C 1620.758 1073.846, 1621.036 1066.277, 1620.769 1058.560 C 1620.405 1048.032, 1619.868 1044.337, 1617.996 1039.500 C 1613.589 1028.108, 1599.914 1017.557, 1584.279 1013.484 C 1579.973 1012.363, 1572.451 1012, 1553.502 1012 C 1529.467 1012, 1528.241 1011.906, 1524.020 1009.750 C 1517.699 1006.521, 1515.582 1001.903, 1515.193 990.500 C 1514.926 982.687, 1515.190 980.914, 1517.193 977.059 C 1521.772 968.243, 1525.651 967.119, 1551.500 967.119 C 1560.850 967.119, 1570.665 967.475, 1573.312 967.910 C 1582.397 969.404, 1586.693 974.439, 1588.430 985.628 C 1590.031 995.943, 1590.397 996.604, 1595.595 998.589 C 1604.306 1001.916, 1615.389 999.201, 1618.803 992.904 C 1621.622 987.706, 1618.547 970.093, 1613.382 961.843 C 1608.253 953.651, 1597.263 946.180, 1585.068 942.596 C 1576.730 940.146, 1524.837 940.359, 1516.972 942.877 M 808.867 967.963 C 802.536 969.108, 799.508 971.333, 796.799 976.833 C 794.504 981.493, 794.500 981.569, 794.500 1026.500 L 794.500 1071.500 797.289 1076.244 C 801.909 1084.104, 803.183 1084.452, 828.642 1084.818 C 852.536 1085.161, 856.973 1084.577, 861.883 1080.445 C 867.984 1075.312, 868.100 1074.211, 867.785 1024.426 L 867.500 979.351 864.684 975.097 C 860.184 968.300, 857.695 967.674, 834 967.380 C 822.725 967.240, 811.415 967.502, 808.867 967.963 M 463.900 1023.937 C 451.396 1030.733, 448.211 1046.532, 457.159 1057.379 C 465.674 1067.703, 481.270 1067.512, 490.291 1056.973 C 494.419 1052.150, 495.446 1048.394, 494.792 1040.506 C 494.270 1034.207, 490.994 1028.828, 485.356 1025.011 C 480.319 1021.601, 469.220 1021.046, 463.900 1023.937" stroke="none" fill="#1c3c8c" fill-rule="evenodd"/></svg>